<svg width="98" height="32" viewBox="0 0 98 32" fill="none" xmlns="http://www.w3.org/2000/svg">
<path d="M96.4675 20.1287L95.9411 20.5979C95.479 21.0089 94.9935 21.3256 94.4974 21.5398C94.0189 21.7459 93.4317 21.8507 92.7519 21.8507C92.1366 21.8507 91.575 21.7098 91.0357 21.421C90.5034 21.1369 90.0858 20.7388 89.757 20.2055C89.4786 19.7526 89.323 19.2577 89.2832 18.6965C89.7781 18.8479 90.2507 18.976 90.6953 19.0796C91.4136 19.2461 92.1612 19.3299 92.9157 19.3299C93.6422 19.3299 94.343 19.2112 94.9958 18.976C95.6813 18.7303 96.2487 18.3624 96.6816 17.8827C97.1531 17.3611 97.3917 16.7242 97.3917 15.9918C97.3917 15.2979 97.1846 14.6622 96.7752 14.1022C96.3809 13.5619 95.8334 13.137 95.1479 12.8401C94.4881 12.5548 93.7581 12.4093 92.9766 12.4093C92.0395 12.4093 91.1281 12.6444 90.2659 13.1078C89.3979 13.5747 88.6749 14.2687 88.1192 15.1698C87.56 16.0757 87.2769 17.1655 87.2769 18.4066C87.2769 19.5197 87.5495 20.5012 88.0876 21.3232C88.6211 22.1383 89.3277 22.7635 90.1887 23.1803C91.031 23.5878 91.9342 23.7951 92.8748 23.7951C93.7545 23.7951 94.5536 23.6356 95.2497 23.32C95.9177 23.0173 96.5693 22.5888 97.187 22.0474L97.6549 21.6364L96.4675 20.1287ZM89.5348 16.8208C89.6751 16.4203 89.8752 16.0617 90.1314 15.752C90.5081 15.2956 90.9527 14.9463 91.4522 14.7111C91.9529 14.4771 92.4653 14.3583 92.9754 14.3583C93.7382 14.3583 94.3535 14.5271 94.8063 14.859C95.2075 15.1535 95.3947 15.5145 95.3947 15.9942C95.3947 16.2701 95.3245 16.6252 94.7805 16.9349C94.2529 17.2342 93.6247 17.3867 92.9157 17.3867C91.8921 17.3844 90.7573 17.1957 89.5348 16.8208Z" fill="#4A5FF7"/>
<path d="M82.5963 17.0724L81.2345 16.7661C80.4004 16.5694 79.9827 16.1328 79.9827 15.5424C79.9827 14.7332 80.7514 14.2314 81.7832 14.2536C82.4196 14.2536 83.0572 14.4503 83.6714 14.7565C84.44 15.1058 85.0764 15.6088 85.3408 15.8498V13.4874C84.9454 13.2033 83.5181 12.2416 81.6732 12.2416C79.1264 12.2416 77.5892 13.9031 77.5892 15.7381C77.5892 17.4647 78.8409 18.317 80.4881 18.7105L81.8054 19.0168C82.9695 19.2787 83.5404 19.6944 83.5404 20.4815C83.5404 21.2685 82.8595 22.0114 81.6077 22.0114C80.8169 22.0114 80.026 21.7494 79.3896 21.3989C78.621 21.0054 78.0501 20.5245 77.8968 20.372L77.8524 22.7763C78.0056 22.9288 79.3241 24 81.6732 24C84.2868 24 85.9117 22.2081 85.9117 20.372C85.9129 18.7769 84.7922 17.5532 82.5963 17.0724Z" fill="#4A5FF7"/>
<path d="M70.5511 12.4605H70.4154V23.738H72.7212V14.434H76.6473V12.4453H70.5511V12.4605Z" fill="#4A5FF7"/>
<path d="M63.8478 12.351C60.73 12.351 58.3797 14.93 58.3797 18.1202C58.3797 21.3116 60.9266 23.8894 64.3742 23.8894C67.01 23.8894 68.4583 22.6436 68.4583 22.6436V20.3487C68.4583 20.3487 66.8556 21.7692 64.5497 21.7692C62.4638 21.7692 61.1021 20.6107 60.7511 18.9934H69.0737C69.0959 18.7093 69.1181 18.4031 69.1181 18.119C69.1181 14.93 66.8778 12.351 63.8478 12.351ZM60.7289 17.247C61.0143 15.6297 62.1129 14.4491 63.8466 14.4491C65.5593 14.4491 66.5912 15.6297 66.8556 17.247H60.7289Z" fill="#4A5FF7"/>
<path d="M55.9207 12.4826L52.6929 20.7655L49.443 12.4826H46.9827L51.5067 23.7601H53.857L58.3798 12.4826H55.9207Z" fill="#4A5FF7"/>
<path d="M45.8856 12.4826H43.5797V23.7601H45.8856V12.4826Z" fill="#4A5FF7"/>
<path d="M43.9048 8L43.0765 9.42628L43.9048 10.8537H45.559L46.3873 9.42628L45.559 8H43.9048Z" fill="#4A5FF7"/>
<path d="M39.3352 9.27025H37.0515V12.4605H34.1444V14.4491H37.0515V23.738H39.3352V14.4491H42.2564V12.4605H39.3352V9.27025Z" fill="#4A5FF7"/>
<path d="M33.0725 8.02443H30.7667V23.7601H33.0725V8.02443Z" fill="#4A5FF7"/>
<path d="M26.0964 18.7256C26.0964 20.5769 25.0763 21.7051 23.5578 21.7051C21.9972 21.7051 20.9747 20.5769 20.9747 18.7256V12.4698H18.6185V18.6837C18.6185 21.8541 20.4143 23.9185 23.4724 23.9185C26.5082 23.9185 28.4327 21.8122 28.4327 18.6837V12.4698H26.0964V18.7256Z" fill="#4A5FF7"/>
<path d="M14.3767 12.4826H14.0164V12.4849L14.0129 12.4826L9.46438 19.9389C9.46087 18.7 9.44215 12.4826 9.44215 12.4826H7.19363H6.83331V12.4849L6.8298 12.4826L2.29883 19.9121L2.28479 19.4766L2.30702 12.4826H0V23.7601H2.30585C2.4474 23.5191 2.80071 22.9311 3.25462 22.1755L7.18076 15.738V23.7601H9.46438C9.46555 23.759 9.46555 23.7578 9.46672 23.7566L9.4714 23.7601L14.3393 15.7788V23.7601H16.6229V12.4826H14.3767Z" fill="#4A5FF7"/>
</svg>
